<svg width="135" height="32" viewBox="0 0 135 32" fill="none" xmlns="http://www.w3.org/2000/svg">
<path fill-rule="evenodd" clip-rule="evenodd" d="M27.5887 4.9047L27.7571 5.92287C27.8898 6.87005 27.9513 7.82585 27.9411 8.78222C27.94 10.8957 27.685 13.0014 27.1816 15.0541C26.5009 17.8428 25.3152 20.4832 23.6833 22.8448C21.7975 25.5569 19.0708 28.2245 15.0963 30.3679L14.6101 30.6299L14.1238 30.3679C10.1493 28.2245 7.42377 25.5569 5.53687 22.8448C3.90495 20.4832 2.71928 17.8428 2.03851 15.0541C1.53525 13.0018 1.28028 10.8964 1.27906 8.78334C1.26879 7.82696 1.3303 6.87116 1.46307 5.92399L1.63146 4.90582C1.64584 4.82278 1.64364 4.73772 1.62499 4.65554C1.60634 4.57336 1.57162 4.49568 1.52281 4.42699C1.47401 4.35829 1.41209 4.29993 1.34062 4.25527C1.26916 4.21061 1.18957 4.18053 1.10643 4.16677C1.02329 4.15301 0.938249 4.15585 0.856209 4.1751C0.774169 4.19436 0.696751 4.22966 0.628416 4.27898C0.560081 4.32829 0.502182 4.39064 0.458053 4.46243C0.413925 4.53422 0.38444 4.61404 0.371298 4.69728L0.202905 5.71545C0.0580626 6.73149 -0.00941459 7.75707 0.00105483 8.78334C0.00185787 11.0005 0.269191 13.2096 0.797302 15.363C1.51618 18.3036 2.76764 21.0877 4.4897 23.5775C6.48032 26.4424 9.36755 29.2594 13.5228 31.4953L14.3123 31.9202C14.4053 31.9705 14.5094 31.9968 14.6151 31.9968C14.7208 31.9968 14.8249 31.9705 14.9179 31.9202L15.7063 31.4953C19.857 29.2583 22.7454 26.4424 24.7394 23.5775C26.4605 21.0879 27.7112 18.3042 28.4295 15.3641C28.9576 13.2107 29.225 11.0016 29.2258 8.78445C29.2362 7.75819 29.1687 6.73261 29.0239 5.71656L28.8555 4.69839C28.8424 4.61515 28.8129 4.53534 28.7688 4.46355C28.7246 4.39175 28.6667 4.3294 28.5984 4.28009C28.5301 4.23078 28.4527 4.19547 28.3706 4.17622C28.2886 4.15696 28.2035 4.15413 28.1204 4.16789C28.0373 4.18165 27.9577 4.21172 27.8862 4.25638C27.8147 4.30104 27.7528 4.3594 27.704 4.4281C27.6552 4.4968 27.6205 4.57448 27.6018 4.65666C27.5832 4.73884 27.581 4.8239 27.5954 4.90693L27.5887 4.9047V4.9047Z" fill="white"/>
<path fill-rule="evenodd" clip-rule="evenodd" d="M5.12103 4.21098L14.6113 1.31148L24.3135 4.27343C24.4759 4.32199 24.651 4.30423 24.8003 4.22403C24.9497 4.14384 25.0612 4.00773 25.1105 3.84552C25.1597 3.6833 25.1427 3.50817 25.0631 3.35847C24.9836 3.20876 24.848 3.09667 24.686 3.04672L14.7975 0.0278941C14.6762 -0.00929804 14.5464 -0.00929804 14.4251 0.0278941L4.74744 2.98204C4.66656 3.00622 4.59126 3.04613 4.52586 3.09949C4.46045 3.15284 4.40623 3.21859 4.3663 3.29296C4.32637 3.36733 4.30152 3.44885 4.29318 3.53285C4.28484 3.61684 4.29317 3.70166 4.31769 3.78243C4.34221 3.8632 4.38245 3.93832 4.43609 4.0035C4.48972 4.06868 4.5557 4.12262 4.63024 4.16224C4.70478 4.20185 4.7864 4.22635 4.87044 4.23433C4.95447 4.24231 5.03925 4.23362 5.11991 4.20875L5.12103 4.21098V4.21098Z" fill="white"/>
<path fill-rule="evenodd" clip-rule="evenodd" d="M0.434996 5.09221L14.0403 31.6472C14.0934 31.7509 14.1738 31.8382 14.273 31.8995C14.3721 31.9608 14.4861 31.9937 14.6027 31.9948C14.7192 31.9958 14.8338 31.9649 14.9341 31.9054C15.0343 31.8458 15.1163 31.76 15.1711 31.6572L23.4682 16.1393L23.4804 16.1148L28.791 5.07437C28.863 4.92201 28.8719 4.74739 28.8158 4.58848C28.7598 4.42957 28.6433 4.29921 28.4916 4.22574C28.34 4.15227 28.1655 4.14162 28.006 4.19612C27.8465 4.25062 27.7151 4.36585 27.6401 4.51677L22.3385 15.5482L14.628 29.9788L1.57138 4.50785C1.53375 4.43222 1.48148 4.36481 1.41762 4.30953C1.35375 4.25425 1.27954 4.21219 1.1993 4.18579C1.11906 4.15939 1.03438 4.14918 0.950164 4.15574C0.865948 4.1623 0.783872 4.18551 0.70869 4.22403C0.633509 4.26254 0.566718 4.31559 0.512187 4.3801C0.457655 4.44461 0.416468 4.5193 0.391011 4.59985C0.365554 4.68039 0.356333 4.76519 0.363884 4.84932C0.371434 4.93346 0.395605 5.01525 0.434996 5.08998V5.09221Z" fill="white"/>
<path fill-rule="evenodd" clip-rule="evenodd" d="M6.94753 16.9185H22.0773C22.2467 16.9185 22.4091 16.8512 22.5288 16.7315C22.6485 16.6118 22.7158 16.4494 22.7158 16.2801C22.7158 16.1107 22.6485 15.9483 22.5288 15.8286C22.4091 15.7089 22.2467 15.6416 22.0773 15.6416H6.94753C6.7782 15.6416 6.61581 15.7089 6.49608 15.8286C6.37635 15.9483 6.30908 16.1107 6.30908 16.2801C6.30908 16.4494 6.37635 16.6118 6.49608 16.7315C6.61581 16.8512 6.7782 16.9185 6.94753 16.9185V16.9185ZM49.1486 11.4095H39.3059C39.1358 11.4103 38.973 11.4783 38.8527 11.5986C38.7324 11.7188 38.6645 11.8817 38.6636 12.0518V19.9518C38.6647 20.1218 38.7328 20.2845 38.853 20.4047C38.9732 20.525 39.1359 20.593 39.3059 20.5942H49.1486V21.9324H39.3059C39.0462 21.9336 38.7889 21.8833 38.5487 21.7845C38.3086 21.6856 38.0904 21.5402 37.9068 21.3566C37.7231 21.1729 37.5777 20.9547 37.4789 20.7146C37.38 20.4744 37.3297 20.2171 37.3309 19.9574V12.0574C37.3297 11.7977 37.38 11.5403 37.4789 11.3002C37.5777 11.06 37.7231 10.8418 37.9068 10.6582C38.0904 10.4746 38.3086 10.3291 38.5487 10.2303C38.7889 10.1315 39.0462 10.0812 39.3059 10.0824H49.1486V11.4095V11.4095ZM67.6307 10.0757V11.4139H58.1516V15.3249H65.7705V16.6743H58.1504V20.5919H67.6296V21.9302H56.8122V10.0757H67.6307Z" fill="white"/>
<path d="M87.1501 12.0673V15.54C87.1511 15.7997 87.1008 16.0569 87.0019 16.297C86.903 16.5371 86.7575 16.7553 86.5739 16.9389C86.3903 17.1225 86.1722 17.2679 85.9321 17.3668C85.692 17.4657 85.4347 17.516 85.1751 17.515H83.3651L87.0843 21.9256H85.3234L81.6199 17.515H77.2706C77.0555 17.5041 76.8411 17.4821 76.6283 17.4492V21.9256H75.29V10.0923H85.1651C85.4247 10.0913 85.682 10.1416 85.9221 10.2405C86.1622 10.3394 86.3803 10.4849 86.5639 10.6685C86.7475 10.8521 86.8929 11.0702 86.9918 11.3103C87.0907 11.5504 87.1411 11.8077 87.1401 12.0673H87.1501V12.0673ZM77.2751 16.1656H85.1751C85.2575 16.1667 85.3394 16.1512 85.4157 16.1201C85.4921 16.0891 85.5615 16.043 85.6198 15.9847C85.6781 15.9264 85.7242 15.857 85.7552 15.7807C85.7863 15.7043 85.8018 15.6225 85.8007 15.54V12.0673C85.802 11.9836 85.7867 11.9006 85.7557 11.8228C85.7247 11.7451 85.6786 11.6743 85.6201 11.6145C85.5632 11.5533 85.4941 11.5048 85.4173 11.4721C85.3404 11.4394 85.2575 11.4234 85.174 11.425H77.274C77.1039 11.4258 76.941 11.4938 76.8207 11.6141C76.7005 11.7343 76.6325 11.8972 76.6316 12.0673V15.54C76.6299 15.6235 76.6459 15.7065 76.6786 15.7834C76.7113 15.8603 76.7599 15.9294 76.8212 15.9861C76.8811 16.0447 76.9521 16.0908 77.03 16.1216C77.108 16.1524 77.1913 16.1674 77.2751 16.1656V16.1656Z" fill="white"/>
<path fill-rule="evenodd" clip-rule="evenodd" d="M94.228 10.0757H106.074V11.4139H100.832V21.9313H99.494V11.4139H94.228V10.0757ZM113.253 21.9257V10.0757H114.591V21.9257H113.253ZM132.378 10.0757H134.089L129.136 16.0007L134.106 21.9257H132.378L127.967 16.6754H124.149V21.9257H122.801V10.0757H124.151V15.3249H127.969L132.378 10.0757Z" fill="white"/>
</svg>
