<svg width="167" height="42" viewBox="0 0 167 42" fill="none" xmlns="http://www.w3.org/2000/svg">
<path d="M19.473 1.60357C19.8663 1.37457 20.2597 1.14556 20.653 0.939453C27.3398 4.78678 34.0266 8.61121 40.7134 12.4127C40.7366 18.1379 40.7366 23.8631 40.7134 29.5654C34.0035 33.3898 27.3167 37.2143 20.653 41.0616C13.943 37.2372 7.20995 33.3898 0.5 29.5425C0.523138 23.8173 0.476862 18.115 0.523137 12.4127C0.870204 12.2524 1.19413 12.0692 1.51806 11.8631C7.51074 8.4509 13.4803 5.01579 19.473 1.60357ZM20.4448 5.79441C15.3313 8.72571 10.2179 11.6341 5.10442 14.5654C4.91931 14.7028 4.6648 14.7715 4.52597 14.9776C8.45939 17.199 12.3928 19.4662 16.3262 21.7104L16.627 21.802C17.8071 20.3364 19.0565 18.9394 20.2365 17.4738C17.9459 16.1456 15.6552 14.8173 13.3415 13.5349C13.6191 13.2372 14.0356 13.0769 14.3827 12.8478C15.5164 12.1837 16.6039 11.4738 17.7376 10.8555C24.0543 14.4967 30.4171 18.0463 36.7337 21.6875C36.7569 19.4433 36.7569 17.1761 36.7337 14.9318C31.5046 11.886 26.2061 8.90892 20.9769 5.88602C20.7918 5.77151 20.6067 5.65701 20.4448 5.79441ZM24.1931 19.7868C23.0131 21.2524 21.7636 22.6723 20.5604 24.1379C22.7354 25.3517 24.8872 26.6112 27.0622 27.8249C27.0622 27.8707 27.0622 27.9623 27.0622 28.0082C25.7896 28.8326 24.4939 29.6341 23.2213 30.4814C23.0825 30.573 22.9205 30.7333 22.7354 30.6188C16.6502 27.1608 10.6112 23.6341 4.50283 20.2219C4.45656 22.4662 4.50283 24.7104 4.4797 26.9318C9.77825 30.0234 15.1231 33.0234 20.4448 36.0921C20.6761 36.2524 20.9075 35.9776 21.1389 35.9089C26.2986 32.9547 31.4815 30.0005 36.6412 27.0463C36.6412 27.0005 36.6181 26.886 36.6181 26.8173C32.6152 24.5272 28.6124 22.2372 24.6096 19.9471C24.4939 19.8784 24.355 19.8326 24.1931 19.7868Z" fill="#FFFBF7"/>
<path d="M85.5316 9.82487C87.8685 9.59586 90.3443 9.80197 92.4961 10.8096C94.3934 11.7256 95.8742 13.2829 96.684 15.2065C97.7946 17.7256 97.9103 20.5653 97.6789 23.2676C97.4244 25.8096 96.4758 28.4203 94.5091 30.1608C92.5424 31.9012 89.8584 32.6111 87.2438 32.6111C84.7912 32.634 82.2229 32.1302 80.2562 30.6188C78.2664 29.1531 77.1326 26.7943 76.7161 24.4356C76.3459 22.2829 76.3459 20.0844 76.7161 17.9317C77.1326 15.6188 78.1969 13.3516 80.0942 11.863C81.6213 10.6264 83.5649 10.0081 85.5316 9.82487ZM85.5779 13.8325C84.2822 14.1302 83.1484 14.9317 82.5006 16.0997C81.5982 17.6569 81.39 19.489 81.4131 21.2523C81.4362 23.0157 81.6445 24.8707 82.57 26.405C83.3104 27.573 84.5136 28.3516 85.9018 28.5577C87.6603 28.8554 89.6501 28.5577 90.969 27.2524C92.1722 25.9928 92.5886 24.2295 92.7506 22.5577C92.82 21.0462 92.8432 19.5348 92.4961 18.0462C92.1722 16.6264 91.4549 15.1836 90.1592 14.405C88.794 13.6035 87.105 13.5119 85.5779 13.8325Z" fill="#FFFBF7"/>
<path d="M53.416 10.0996H58.1593C58.1593 13.008 58.1593 15.9164 58.1593 18.8019C61.1209 18.8019 64.0825 18.8019 67.0442 18.8019C67.0442 15.8935 67.0442 12.9851 67.0442 10.0996H71.7874C71.7874 17.4966 71.7874 24.9164 71.7874 32.3133H67.0673C67.0673 29.1301 67.0673 25.924 67.0673 22.7408C64.1057 22.7179 61.144 22.7408 58.1824 22.7408C58.1824 25.9469 58.1824 29.1301 58.1824 32.3363H53.416C53.416 24.9164 53.416 17.5195 53.416 10.0996Z" fill="#FFFBF7"/>
<path d="M100.224 10.0996H117.137C117.137 11.405 117.137 12.7103 117.137 14.0156C115.124 14.0156 113.088 14.0156 111.075 14.0156C111.075 20.1072 111.075 26.2217 111.075 32.3134H106.332C106.309 31.6721 106.355 31.0309 106.309 30.3897C106.355 29.7714 106.355 29.1301 106.309 28.5118C106.355 24.9851 106.355 21.4584 106.309 17.9088C106.355 17.4737 106.355 17.0385 106.309 16.6034C106.355 15.7561 106.309 14.9088 106.332 14.0614C104.296 14.0156 102.26 14.0614 100.224 14.0385C100.224 12.7103 100.224 11.405 100.224 10.0996Z" fill="#FFFBF7"/>
<path d="M120.608 10.0996H127.434C129.724 10.0996 132.107 10.2141 134.19 11.2446C135.578 11.9546 136.48 13.3057 136.619 14.8401C136.689 15.8477 136.689 16.8782 136.342 17.8172C135.925 19.008 134.976 20.0385 133.75 20.382C133.565 20.4737 133.264 20.405 133.218 20.6569C134.467 20.9317 135.763 21.5042 136.457 22.6263C137.313 24.0004 137.383 25.7408 137.128 27.2981C136.804 29.1301 135.439 30.6416 133.773 31.3973C131.783 32.3591 129.493 32.3591 127.341 32.3133H120.654C120.608 24.9164 120.608 17.5195 120.608 10.0996ZM125.351 13.9469C125.351 15.5729 125.351 17.2217 125.351 18.8477C126.346 18.8935 127.318 18.8477 128.313 18.8706C129.261 18.8706 130.303 18.779 131.066 18.1836C131.783 17.5882 131.876 16.5576 131.714 15.6874C131.552 14.8859 130.812 14.3591 130.048 14.1988C128.521 13.8324 126.948 13.9927 125.351 13.9469ZM125.351 22.6492C125.351 24.5729 125.351 26.4966 125.351 28.4202C126.601 28.4202 127.85 28.4431 129.123 28.4202C130.025 28.3286 130.997 28.1225 131.621 27.4355C132.292 26.7256 132.339 25.6721 132.223 24.7561C132.061 23.7256 131.112 23.0614 130.141 22.8553C128.567 22.4889 126.948 22.6721 125.351 22.6492Z" fill="#FFFBF7"/>
<path d="M141.71 10.0996H146.453C146.453 17.4966 146.453 24.9164 146.453 32.3134H141.71C141.71 24.9164 141.71 17.5195 141.71 10.0996Z" fill="#FFFBF7"/>
<path d="M149.924 10.0996C155.569 10.0996 161.192 10.0996 166.838 10.0996C166.838 11.405 166.838 12.7103 166.838 14.0385C164.825 14.0385 162.788 14.0385 160.775 14.0385C160.775 20.1301 160.775 26.2217 160.775 32.3363C159.179 32.3363 157.582 32.3363 155.986 32.3363C155.986 26.2446 155.986 20.1301 155.986 14.0385C153.973 14.0385 151.937 14.0385 149.924 14.0385C149.901 12.7332 149.924 11.405 149.924 10.0996Z" fill="#FFFBF7"/>
</svg>
