<svg width="500" height="78" viewBox="0 0 500 78" fill="none" xmlns="http://www.w3.org/2000/svg">
<g clip-path="url(#clip0_1_8)">
<path d="M96.4141 59.7564C95.2514 59.7564 94.4294 59.5156 93.9481 59.0347C93.507 58.5535 93.2865 57.7916 93.2865 56.749V21.9247C93.2865 20.8817 93.5269 20.1198 94.0082 19.639C94.4895 19.1175 95.2912 18.8568 96.4141 18.8568H111.15C116.763 18.8568 120.893 20.0398 123.54 22.4055C126.187 24.7713 127.51 28.2998 127.51 32.991C127.51 37.6425 126.187 41.1511 123.54 43.5168C120.934 45.8427 116.804 47.0055 111.15 47.0055H105.436V56.749C105.436 57.7916 105.196 58.5535 104.714 59.0347C104.233 59.5156 103.411 59.7564 102.248 59.7564H96.4141V59.7564ZM110.188 38.2842C111.832 38.2842 113.095 37.8431 113.977 36.961C114.899 36.0788 115.36 34.7557 115.36 32.9914C115.36 31.187 114.899 29.8435 113.977 28.9614C113.095 28.0792 111.832 27.6382 110.188 27.6382H105.436V38.2842H110.188ZM141.714 60.6585C137.945 60.6585 134.918 59.4555 132.632 57.05C130.386 54.6038 129.264 51.1756 129.264 46.7646C129.264 43.3966 130.026 40.4493 131.549 37.9231C133.113 35.397 135.299 33.4524 138.105 32.089C140.952 30.6858 144.22 29.984 147.909 29.984C150.957 29.984 153.643 30.3248 155.969 31.0066C158.335 31.6479 160.5 32.5902 162.464 33.8333V57.8919C162.464 58.6538 162.324 59.155 162.043 59.3954C161.763 59.6362 161.201 59.7564 160.359 59.7564H154.224C153.783 59.7564 153.443 59.6963 153.202 59.5757C152.961 59.4157 152.761 59.1749 152.601 58.854L151.819 57.05C150.656 58.2927 149.253 59.1952 147.609 59.7564C146.005 60.3579 144.04 60.6585 141.714 60.6585V60.6585ZM146.225 52.4785C147.789 52.4785 149.012 52.0976 149.894 51.3361C150.776 50.5742 151.217 49.4914 151.217 48.0878V38.7053C150.456 38.3443 149.493 38.1639 148.33 38.1639C146.205 38.1639 144.501 38.9055 143.218 40.3892C141.975 41.8728 141.353 43.9578 141.353 46.6444C141.353 50.534 142.977 52.4785 146.225 52.4785V52.4785ZM170.835 59.7564C169.672 59.7564 168.85 59.5156 168.369 59.0347C167.888 58.5535 167.647 57.7916 167.647 56.749V32.7506C167.647 32.0289 167.767 31.5476 168.008 31.3072C168.288 31.0262 168.85 30.886 169.692 30.886H175.887C176.368 30.886 176.729 30.9664 176.97 31.1269C177.25 31.2471 177.411 31.4875 177.451 31.8486L177.751 33.653C178.874 32.5301 180.338 31.6479 182.142 31.0066C183.987 30.3248 186.032 29.984 188.277 29.984C191.525 29.984 194.151 30.9063 196.156 32.7506C198.161 34.555 199.164 37.2416 199.164 40.8103V56.749C199.164 57.7916 198.923 58.5535 198.442 59.0347C198.001 59.5156 197.199 59.7564 196.036 59.7564H190.202C189.039 59.7564 188.197 59.5156 187.676 59.0347C187.194 58.5535 186.954 57.7916 186.954 56.749V41.5921C186.954 40.3892 186.693 39.5273 186.172 39.0059C185.651 38.4848 184.829 38.224 183.706 38.224C182.503 38.224 181.541 38.5449 180.819 39.1862C180.137 39.8279 179.797 40.71 179.797 41.8329V56.749C179.797 57.7916 179.556 58.5535 179.075 59.0347C178.634 59.5156 177.832 59.7564 176.669 59.7564H170.835V59.7564ZM220.423 60.6585C214.81 60.6585 210.479 59.3552 207.432 56.749C204.384 54.1429 202.861 50.3536 202.861 45.3813C202.861 42.3341 203.562 39.6475 204.966 37.322C206.369 34.9961 208.394 33.1917 211.041 31.9087C213.727 30.6257 216.895 29.984 220.544 29.984C223.31 29.984 225.636 30.2447 227.521 30.7658C229.445 31.2873 231.149 32.089 232.633 33.1717C233.074 33.4528 233.295 33.8134 233.295 34.2545C233.295 34.5753 233.134 34.9961 232.813 35.5176L230.347 39.7877C230.067 40.3493 229.726 40.63 229.325 40.63C229.084 40.63 228.703 40.4696 228.182 40.1487C227.1 39.4672 226.077 38.966 225.115 38.6452C224.192 38.3244 223.03 38.1639 221.626 38.1639C219.621 38.1639 217.998 38.8056 216.754 40.0886C215.552 41.3716 214.95 43.1358 214.95 45.3813C214.95 47.6671 215.571 49.4313 216.815 50.6741C218.058 51.877 219.762 52.4785 221.927 52.4785C223.21 52.4785 224.373 52.2982 225.416 51.9372C226.458 51.5765 227.521 51.0753 228.603 50.4336C229.165 50.1128 229.566 49.9524 229.806 49.9524C230.167 49.9524 230.488 50.233 230.769 50.7947L233.475 55.4258C233.676 55.8267 233.776 56.1475 233.776 56.388C233.776 56.749 233.535 57.0898 233.054 57.4106C231.37 58.4934 229.525 59.2951 227.521 59.8166C225.556 60.3778 223.19 60.6585 220.423 60.6585V60.6585ZM249.026 60.6585C245.256 60.6585 242.229 59.4555 239.944 57.05C237.698 54.6038 236.575 51.1756 236.575 46.7646C236.575 43.3966 237.337 40.4493 238.861 37.9231C240.425 35.397 242.61 33.4524 245.417 32.089C248.264 30.6858 251.532 29.984 255.221 29.984C258.268 29.984 260.955 30.3248 263.28 31.0066C265.646 31.6479 267.811 32.5902 269.776 33.8333V57.8919C269.776 58.6538 269.636 59.155 269.355 59.3954C269.075 59.6362 268.513 59.7564 267.671 59.7564H261.536C261.095 59.7564 260.754 59.6963 260.514 59.5757C260.273 59.4157 260.073 59.1749 259.912 58.854L259.13 57.05C257.968 58.2927 256.564 59.1952 254.92 59.7564C253.316 60.3579 251.351 60.6585 249.026 60.6585V60.6585ZM253.537 52.4785C255.101 52.4785 256.324 52.0976 257.206 51.3361C258.088 50.5742 258.529 49.4914 258.529 48.0878V38.7053C257.767 38.3443 256.805 38.1639 255.642 38.1639C253.517 38.1639 251.813 38.9055 250.529 40.3892C249.287 41.8728 248.665 43.9578 248.665 46.6444C248.665 50.534 250.289 52.4785 253.537 52.4785V52.4785ZM307.558 57.4707C307.838 57.7916 307.979 58.1526 307.979 58.5535C307.979 58.9141 307.859 59.2151 307.618 59.4555C307.377 59.6561 307.057 59.7564 306.656 59.7564H297.333C296.772 59.7564 296.351 59.7162 296.07 59.6362C295.829 59.5156 295.569 59.2951 295.288 58.9746L287.108 47.8474V56.749C287.108 57.7916 286.868 58.5535 286.386 59.0347C285.905 59.5156 285.083 59.7564 283.92 59.7564H278.086C276.923 59.7564 276.101 59.5156 275.62 59.0347C275.179 58.5535 274.959 57.7916 274.959 56.749V21.9247C274.959 20.8817 275.199 20.1198 275.68 19.639C276.162 19.1175 276.964 18.8568 278.086 18.8568H283.92C285.083 18.8568 285.905 19.1175 286.386 19.639C286.868 20.1198 287.108 20.8817 287.108 21.9243V42.0734L295.048 31.7283C295.288 31.4075 295.549 31.187 295.829 31.0667C296.11 30.9461 296.531 30.886 297.093 30.886H306.415C306.816 30.886 307.117 31.0066 307.317 31.2471C307.558 31.4477 307.678 31.7283 307.678 32.089C307.678 32.4902 307.538 32.8509 307.257 33.1717L296.972 44.9606L307.558 57.4707ZM327.087 60.6585C323.719 60.6585 320.712 60.0972 318.066 58.9746C315.459 57.8517 313.394 56.1674 311.87 53.9223C310.347 51.6768 309.585 48.9301 309.585 45.6823C309.585 40.5898 311.029 36.7002 313.916 34.0137C316.803 31.3271 320.953 29.984 326.366 29.984C331.659 29.984 335.669 31.3072 338.395 33.9536C341.162 36.5601 342.545 40.1889 342.545 44.84C342.545 46.845 341.663 47.8474 339.899 47.8474H321.013C321.013 49.5714 321.654 50.895 322.938 51.8169C324.261 52.7393 326.246 53.2002 328.892 53.2002C330.536 53.2002 331.899 53.0601 332.982 52.7795C334.105 52.4586 335.228 51.9977 336.35 51.3962C336.831 51.1956 337.152 51.0952 337.312 51.0952C337.673 51.0952 337.974 51.3361 338.215 51.8169L340.26 55.6663C340.46 56.0675 340.561 56.3681 340.561 56.5687C340.561 56.9294 340.32 57.2705 339.838 57.5909C338.195 58.6737 336.33 59.4555 334.245 59.9368C332.16 60.418 329.774 60.6585 327.087 60.6585V60.6585ZM331.719 41.8931C331.719 40.3692 331.278 39.1862 330.396 38.3443C329.514 37.5023 328.19 37.0812 326.426 37.0812C324.662 37.0812 323.319 37.5223 322.396 38.4044C321.474 39.2467 321.013 40.4094 321.013 41.8931H331.719ZM363.16 60.6585C359.792 60.6585 356.604 60.3177 353.597 59.6362C350.59 58.9141 348.164 57.9118 346.319 56.6288C345.638 56.1877 345.297 55.7264 345.297 55.2455C345.297 54.9247 345.417 54.5839 345.658 54.2229L348.605 49.5316C348.926 49.0504 349.246 48.8099 349.567 48.8099C349.768 48.8099 350.109 48.95 350.59 49.2307C352.073 50.073 353.757 50.7545 355.642 51.2756C357.527 51.797 359.391 52.0578 361.236 52.0578C363.12 52.0578 364.504 51.7771 365.386 51.2155C366.308 50.6542 366.769 49.7521 366.769 48.509C366.769 47.306 366.268 46.3638 365.265 45.6823C364.303 45.0004 362.479 44.1386 359.792 43.096C355.742 41.5722 352.575 39.8681 350.289 37.9832C348.043 36.0589 346.921 33.4524 346.921 30.1643C346.921 26.1948 348.344 23.1675 351.191 21.0824C354.038 18.9969 357.827 17.9547 362.559 17.9547C365.847 17.9547 368.654 18.2553 370.979 18.8568C373.345 19.4184 375.35 20.3006 376.994 21.5031C377.676 22.0246 378.016 22.5059 378.016 22.9469C378.016 23.2276 377.896 23.548 377.655 23.9091L374.708 28.6007C374.347 29.0816 374.027 29.3224 373.746 29.3224C373.546 29.3224 373.205 29.1819 372.724 28.9013C370.398 27.3774 367.631 26.6159 364.424 26.6159C362.699 26.6159 361.376 26.8966 360.454 27.4578C359.532 28.0191 359.07 28.9415 359.07 30.2244C359.07 31.1066 359.311 31.8287 359.792 32.3899C360.273 32.9512 360.915 33.4524 361.717 33.8934C362.559 34.2943 363.842 34.8158 365.566 35.4575L366.709 35.8782C369.676 37.0414 372.002 38.1639 373.686 39.2467C375.41 40.2888 376.713 41.5921 377.595 43.1561C378.477 44.6796 378.918 46.6042 378.918 48.9301C378.918 52.4988 377.575 55.3458 374.889 57.4707C372.242 59.596 368.333 60.6585 363.16 60.6585ZM391.698 59.7564C391.097 59.7564 390.636 59.6561 390.315 59.4555C389.994 59.2553 389.753 58.854 389.593 58.2525L381.834 32.2693C381.754 32.0289 381.714 31.8486 381.714 31.7283C381.714 31.1671 382.114 30.886 382.916 30.886H390.855C391.378 30.886 391.756 30.9863 391.998 31.1866C392.24 31.3474 392.4 31.6276 392.479 32.0289L395.726 45.6823L399.817 34.6753C400.02 34.1944 400.219 33.8735 400.418 33.7131C400.66 33.5125 401.062 33.4126 401.624 33.4126H405.41C405.972 33.4126 406.354 33.5125 406.553 33.7131C406.795 33.8731 407.014 34.1944 407.217 34.6753L411.245 45.6823L414.555 32.0289C414.672 31.628 414.832 31.3474 415.035 31.187C415.234 30.9863 415.597 30.8864 416.116 30.8864H424.118C424.918 30.8864 425.32 31.1671 425.32 31.7283C425.32 31.8486 425.281 32.0289 425.199 32.2693L417.381 58.2525C417.221 58.854 416.979 59.2553 416.659 59.4555C416.378 59.6561 415.937 59.7564 415.336 59.7564H409.442C408.88 59.7564 408.458 59.6561 408.177 59.4555C407.896 59.2151 407.658 58.8142 407.455 58.2525L403.486 47.3661L399.516 58.2525C399.356 58.8142 399.114 59.2151 398.794 59.4555C398.513 59.6561 398.095 59.7564 397.533 59.7564H391.698ZM440.566 60.6585C436.795 60.6585 433.77 59.4555 431.483 57.05C429.239 54.6038 428.115 51.1756 428.115 46.7646C428.115 43.3966 428.876 40.4493 430.402 37.9231C431.963 35.397 434.149 33.4524 436.956 32.089C439.805 30.6858 443.072 29.984 446.76 29.984C449.809 29.984 452.494 30.3248 454.82 31.0066C457.186 31.6479 459.352 32.5902 461.315 33.8333V57.8919C461.315 58.6538 461.175 59.155 460.894 59.3954C460.613 59.6362 460.055 59.7564 459.212 59.7564H453.076C452.635 59.7564 452.295 59.6963 452.053 59.5757C451.811 59.4157 451.612 59.1749 451.452 58.854L450.671 57.05C449.508 58.2927 448.103 59.1952 446.46 59.7564C444.856 60.3579 442.892 60.6585 440.566 60.6585V60.6585ZM445.078 52.4785C446.639 52.4785 447.865 52.0976 448.747 51.3361C449.629 50.5742 450.07 49.4914 450.07 48.0878V38.7053C449.305 38.3443 448.345 38.1639 447.182 38.1639C445.055 38.1639 443.353 38.9055 442.069 40.3892C440.827 41.8728 440.203 43.9578 440.203 46.6444C440.203 50.534 441.831 52.4785 445.078 52.4785V52.4785ZM469.625 71.9059C468.462 71.9059 467.642 71.6655 467.158 71.1842C466.717 70.703 466.499 69.9411 466.499 68.8985V34.4348C468.302 33.1518 470.57 32.089 473.294 31.2471C476.023 30.4052 478.868 29.984 481.834 29.984C493.946 29.984 500 35.1167 500 45.3813C500 50.0328 498.716 53.7416 496.151 56.5086C493.583 59.2752 489.957 60.6585 485.265 60.6585C483.942 60.6585 482.658 60.498 481.413 60.1772C480.211 59.8568 479.208 59.4157 478.408 58.854V68.8985C478.408 69.9411 478.165 70.703 477.685 71.1842C477.205 71.6655 476.382 71.9059 475.219 71.9059H469.625V71.9059ZM482.678 52.5386C484.403 52.5386 485.687 51.8973 486.526 50.614C487.408 49.2908 487.849 47.5265 487.849 45.3212C487.849 42.7151 487.33 40.8903 486.288 39.8478C485.285 38.7654 483.72 38.224 481.596 38.224C480.23 38.224 479.149 38.4044 478.349 38.7654V48.3287C478.349 49.692 478.728 50.7346 479.489 51.4563C480.254 52.178 481.315 52.5386 482.678 52.5386V52.5386Z" fill="white"/>
<path fill-rule="evenodd" clip-rule="evenodd" d="M38.0781 77.5203C26.6838 77.5117 17.5051 74.7775 11.0921 69.8665C4.60225 64.8966 1.15924 57.8435 1.15924 49.8626C1.15924 42.1729 4.59445 36.628 8.48165 32.8798C11.5281 29.9426 14.8895 28.0617 17.2303 26.9793C16.701 25.3548 16.0406 23.2283 15.4496 21.0316C14.6592 18.0925 13.8837 14.6436 13.8837 12.1167C13.8837 9.12568 14.5355 6.12139 16.2939 3.78728C18.1518 1.32123 20.9489 0 24.3134 0C26.943 0 29.1756 0.97541 30.9231 2.65808C32.5937 4.2662 33.7061 6.40242 34.4738 8.6292C35.8228 12.5418 36.3482 17.4575 36.4953 22.3634H39.7182C39.8657 17.4575 40.3907 12.5418 41.74 8.6292C42.5078 6.40242 43.6194 4.26659 45.2904 2.65808C47.0382 0.9758 49.2705 0 51.9001 0C55.265 0 58.0617 1.32123 59.9196 3.78728C61.678 6.12139 62.3302 9.12568 62.3302 12.1167C62.3302 14.6436 61.5542 18.0925 60.7638 21.0316C60.1729 23.2283 59.5125 25.3548 58.9832 26.9793C61.324 28.0617 64.6858 29.9426 67.7318 32.8802C71.619 36.628 75.0542 42.1729 75.0542 49.8626C75.0542 57.8435 71.6116 64.8966 65.1214 69.8665C58.7084 74.7775 49.5297 77.5117 38.1354 77.5203H38.0781V77.5203Z" fill="#633001"/>
<path d="M24.313 2.84465C19.3852 2.84465 17.1167 6.55894 17.1167 11.6952C17.1167 15.7779 19.7525 23.9543 20.8337 27.1374C21.0773 27.8536 20.6948 28.6378 19.9977 28.9153C16.048 30.4887 4.39227 36.249 4.39227 49.4414C4.39227 63.338 16.2373 73.8162 38.0808 73.8329L38.1066 73.8325L38.1327 73.8329C59.9758 73.8162 71.8208 63.338 71.8208 49.4414C71.8208 36.249 60.1651 30.4887 56.2155 28.9153C55.5183 28.6382 55.1362 27.8536 55.3794 27.1374C56.461 23.9547 59.0968 15.7779 59.0968 11.6952C59.0968 6.55855 56.8283 2.84465 51.9001 2.84465C44.8064 2.84465 43.0379 12.9957 42.9118 23.8907C42.9036 24.6179 42.3212 25.208 41.6015 25.208H34.612C33.8919 25.208 33.3099 24.6179 33.3013 23.8907C33.1753 12.9957 31.4071 2.84465 24.313 2.84465V2.84465Z" fill="white"/>
<path d="M38.1327 69.3813C22.0835 69.3813 4.41999 60.7026 4.39227 49.468V49.5203C4.39227 63.4282 16.2561 73.9118 38.1327 73.9118C60.0094 73.9118 71.8731 63.4282 71.8731 49.5203V49.468C71.8454 60.7026 54.1819 69.3813 38.1327 69.3813V69.3813Z" fill="#FEDC90"/>
<path d="M29.2154 46.0172C29.2154 49.8103 27.441 51.7857 25.2521 51.7857C23.0632 51.7857 21.2888 49.8103 21.2888 46.0172C21.2888 42.224 23.0632 40.2486 25.2521 40.2486C27.441 40.2486 29.2154 42.224 29.2154 46.0172V46.0172ZM54.977 46.0172C54.977 49.8103 53.2026 51.7857 51.0136 51.7857C48.8247 51.7857 47.0503 49.8103 47.0503 46.0172C47.0503 42.224 48.8247 40.2486 51.0136 40.2486C53.2026 40.2486 54.977 42.224 54.977 46.0172V46.0172Z" fill="#633001"/>
</g>
<defs>
<clipPath id="clip0_1_8">
<rect width="500" height="77.6737" fill="white"/>
</clipPath>
</defs>
</svg>
