<svg width="216" height="46" viewBox="0 0 216 46" fill="none" xmlns="http://www.w3.org/2000/svg">
<path d="M18.2459 22.0318C19.219 23.7265 17.0296 24.2107 16.0565 24.3317C14.5969 24.4528 14.232 23.6055 14.4753 22.516C14.5969 22.1529 14.8402 21.7898 15.0834 21.5477C15.3267 21.3056 15.8132 21.0635 16.1781 21.0635C16.543 21.0635 17.0296 21.0635 17.2728 21.3056C17.7594 21.4266 18.0026 21.6687 18.2459 22.0318Z" fill="#FFFBF7"/>
<path d="M24.0841 19.0059C22.9894 27.4791 37.8288 25.6634 37.5855 32.321C39.0451 30.3842 39.6533 25.3003 35.3961 22.6373C31.5038 20.2163 26.5168 21.5478 24.0841 19.0059Z" fill="#FFFBF7"/>
<path d="M32.7198 15.7372C32.5982 15.6162 32.4766 15.6162 32.4766 15.4951C32.4766 15.6162 32.5982 15.7372 32.7198 15.7372Z" fill="#FFFBF7"/>
<path d="M36.1257 21.9107C36.0041 21.6686 35.8824 21.4265 35.6392 21.1844C35.1526 20.4581 34.4228 19.9739 33.5714 19.8529C33.0848 19.7318 32.4767 19.6108 31.8685 19.6108C31.2603 19.6108 30.7738 19.4897 30.1656 19.4897C28.9493 19.3687 27.8546 19.2477 26.6382 19.0056C26.395 18.8845 26.0301 18.8845 25.7868 18.7635C25.6652 18.7635 25.5435 18.6424 25.3002 18.6424C25.1786 18.5214 25.057 18.5214 24.8137 18.4003C24.2055 18.1582 23.719 17.6741 23.3541 17.3109C22.5027 16.4636 21.7729 15.4952 21.043 14.6479C20.3132 13.6795 19.7051 12.8322 18.8536 11.9849C18.1238 11.1375 17.1508 10.4113 16.1777 9.92707C15.2046 9.44288 13.9883 9.07974 12.8936 8.9587C14.1099 8.83765 15.3262 8.9587 16.4209 9.44289C17.5157 9.92707 18.6104 10.5323 19.4618 11.3796C20.07 11.8638 20.5565 12.469 21.043 13.0743C24.8137 12.348 27.7329 12.9532 30.044 14.2847C30.7738 14.6479 31.5036 15.1321 32.1118 15.7373C32.2334 15.8583 32.355 15.8584 32.355 15.9794C32.8416 16.4636 33.3281 16.9478 33.693 17.432C35.3959 19.0056 36.1257 20.8213 36.1257 21.9107Z" fill="#FFFBF7"/>
<path d="M13.2584 9.92676C14.2314 10.0478 15.2045 10.4109 15.8127 11.1372C16.4208 11.8635 16.6641 12.8319 16.9074 13.6792C17.029 14.4055 17.1506 15.1318 17.3939 15.737C17.5156 16.1001 17.7588 16.3422 17.8805 16.5843C18.0021 16.8264 18.2454 17.0685 18.367 17.3106V17.4316V17.5527C18.0021 17.9158 17.1506 17.5527 16.7857 17.3106C16.1776 17.0685 15.691 16.5843 15.2045 16.1001C13.8665 14.6476 13.1367 12.4687 13.1367 10.532C13.1367 10.4109 13.2584 10.1689 13.2584 9.92676Z" fill="#FFFBF7"/>
<path d="M29.0712 26.874C27.0035 32.5632 36.3693 36.4367 32.8419 42.2469C36.3693 40.7944 38.0722 36.3157 36.6126 32.8053C35.3962 29.6581 31.5039 28.4476 29.0712 26.874Z" fill="#FFFBF7"/>
<path d="M16.7861 34.2573C17.3943 33.8942 18.0025 33.5311 18.6106 33.1679C19.2188 32.9258 19.9486 32.6837 20.6784 32.5627C22.0164 32.3206 23.476 32.1996 24.5707 31.7154C25.1789 31.4733 25.6654 31.2312 26.152 30.747C26.6385 30.3839 26.8818 29.8997 27.125 29.2944C27.3683 28.6892 27.3683 28.084 27.3683 27.4787C27.3683 26.7525 27.125 26.1472 26.8818 25.542C27.3683 26.0262 27.7332 26.7525 27.9765 27.4787C28.2197 28.205 28.2198 28.9313 28.0981 29.6576C27.9765 30.3839 27.4899 31.1101 27.0034 31.7154C26.5169 32.1996 25.7871 32.6837 25.0573 32.9258C24.3275 33.1679 23.5976 33.289 22.8678 33.41C22.138 33.41 21.5299 33.5311 20.8001 33.5311C19.4621 33.5311 18.1241 33.7732 16.7861 34.2573Z" fill="#FFFBF7"/>
<path d="M29.9223 44.3043C29.679 44.4254 29.5574 44.6675 29.3141 44.7885C29.0708 44.9096 28.8276 45.0306 28.5843 45.1517C28.0977 45.3938 27.4896 45.5148 26.8814 45.5148C25.3002 45.5148 24.2055 44.3043 23.5973 42.9728C23.1107 42.1255 22.8675 41.1571 22.3809 40.3098C21.6511 39.0993 20.3132 38.131 18.8535 38.252C18.2454 38.3731 17.6372 38.6152 17.3939 39.0993C16.5425 40.4309 17.7588 42.3676 19.4617 42.1255C19.5833 42.1255 19.705 42.1255 19.8266 42.0045C19.9483 42.0045 20.0699 41.8834 20.1915 41.7624C20.4348 41.5203 20.5564 41.2782 20.6781 41.0361C20.7997 40.794 20.7997 40.4309 20.7997 40.0677C20.6781 39.7046 20.5564 39.4625 20.3132 39.3414C20.6781 39.4625 20.9213 39.7046 21.043 40.0677C20.9213 40.6729 20.9213 41.0361 20.9213 41.3992C20.7997 41.7624 20.6781 42.1255 20.4348 42.3676C20.3132 42.4886 20.1915 42.6097 19.9483 42.7307C19.8266 42.8518 19.5833 42.9728 19.4617 42.9728C19.0968 43.0939 18.7319 43.0939 18.367 43.0939C17.8805 42.9728 17.2723 42.8518 16.9074 42.4886C16.4209 42.1255 16.056 41.5203 15.5694 41.1571C15.0829 40.5519 14.4747 40.1888 13.7449 39.8256C13.2584 39.5835 12.7718 39.4625 12.2853 39.3414C12.042 39.3414 11.7988 39.2204 11.5555 39.2204C11.4339 39.2204 10.8257 39.0993 10.8257 39.0993C11.6771 38.3731 12.5286 37.7678 13.38 37.1626C14.3531 36.5574 15.3261 36.1942 16.4209 35.8311C17.5156 35.4679 18.6103 35.468 19.8266 35.589C20.4348 35.71 20.9213 35.8311 21.5295 36.0732C22.1377 36.3153 22.6242 36.6784 23.1107 37.0416C23.5973 37.5257 23.9622 38.0099 24.2055 38.4941C24.4487 38.9783 24.5704 39.5835 24.692 40.1888C25.0569 41.8834 24.9353 44.5464 27.1247 44.9096C27.2463 44.9096 27.3679 44.9096 27.4896 44.9096H27.8545C28.0977 44.9096 28.341 44.9096 28.5843 44.7885C28.9492 44.7885 29.4357 44.5464 29.9223 44.3043Z" fill="#FFFBF7"/>
<path d="M14.961 18.5213C14.8394 18.8844 14.7177 19.1265 14.5961 19.3686C14.2312 19.8528 13.7447 20.2159 13.2581 20.458C12.7716 20.7001 12.2851 20.8212 11.6769 20.8212C11.5553 20.8212 11.4336 20.8212 11.312 20.8212C10.9471 20.8212 10.7038 20.9422 10.3389 21.1843C10.0956 21.4264 9.85238 21.6685 9.85238 22.0316C9.85238 22.1527 9.73074 22.3948 9.73074 22.5158C9.73074 23 9.60911 23.3632 9.60911 23.9684C9.48747 24.9368 9.24421 25.7841 8.8793 26.6314C8.39277 27.7208 7.78459 28.6892 7.90623 29.8997C8.02786 30.747 8.39277 31.3522 9.00094 31.8364C9.97401 32.9258 12.2851 33.41 11.7985 35.952C11.4336 37.5256 8.8793 39.0992 5.35191 39.7044C5.71681 39.7044 4.86537 38.2519 4.86537 38.1308C4.50047 37.5256 4.01393 36.9204 3.77066 36.3151C3.16249 35.1047 2.91922 33.5311 3.16249 32.1995C3.40576 30.747 4.50047 29.6576 5.35191 28.4471C6.44662 27.1156 7.54133 25.4209 7.78459 23.6052C7.78459 23.2421 7.90623 22.6369 8.02786 22.1527C8.1495 21.5475 8.27113 21.0633 8.5144 20.458C8.63603 20.0949 8.8793 19.8528 9.2442 19.4897C9.36584 19.3686 9.48747 19.1265 9.48747 19.0055C9.48747 18.7634 9.48747 18.6423 9.36584 18.4002L3.64903 8.11128L11.9202 18.2792C12.0418 18.4002 12.1634 18.5213 12.2851 18.5213C12.4067 18.6423 12.5283 18.6423 12.7716 18.6423C12.8932 18.6423 13.0149 18.6423 13.2581 18.5213C13.3798 18.4002 13.5014 18.4002 13.623 18.2792C13.7447 18.1582 13.7447 18.0371 13.7447 17.795C13.7447 17.674 13.7447 17.4319 13.623 17.3108C13.1365 16.5845 12.5283 15.9793 11.9202 15.253L9.85238 12.7111L5.71681 7.6271L0 0.485352L6.20335 7.14291L10.5822 11.9848L12.7716 14.4057C13.5014 15.253 14.2312 15.9793 14.961 16.9477L15.0827 17.0687V17.3108C15.0827 17.795 15.0827 18.1582 14.961 18.5213Z" fill="#FFFBF7"/>
<path d="M16.9072 42.3677C16.5423 42.0046 16.1774 41.6415 15.8125 41.2783C16.1774 41.7625 16.4207 42.1256 16.9072 42.3677Z" fill="#FFFBF7"/>
<path fill-rule="evenodd" clip-rule="evenodd" d="M124.067 15.0113C120.053 15.9796 118.229 19.1268 119.323 22.8793C119.81 24.4529 121.27 26.1475 123.459 27.358C127.23 29.5368 128.446 30.3842 129.054 31.7157C129.541 32.8051 129.662 33.1682 129.419 34.2577C128.811 36.6786 127.108 37.8891 124.675 37.8891C122.243 37.8891 120.54 36.5575 120.053 34.2577C119.932 33.2893 119.688 33.0472 119.323 33.0472C118.837 33.0472 118.715 33.2893 118.715 35.5892V38.1311L120.297 38.6153C122.851 39.4627 126.378 39.3416 128.446 38.3732C132.582 36.4365 134.163 32.684 132.338 29.1737C131.609 27.8422 129.906 26.3896 126.986 24.5739C123.824 22.6372 122.486 21.3057 122.243 19.9742C121.878 17.7953 123.824 16.1007 126.5 16.1007C128.568 16.1007 129.419 16.5849 130.149 18.1585C130.635 19.1268 130.879 19.49 131.487 19.49C132.095 19.49 132.217 19.3689 131.973 18.7637C131.852 18.4006 131.73 17.4322 131.73 16.7059C131.73 15.7375 131.608 15.2533 131.244 15.1323C130.392 14.7692 125.162 14.6481 124.067 15.0113ZM43.7886 15.8586C43.7886 16.3428 44.0318 16.4638 44.5184 16.4638C45.978 16.4638 46.0996 16.827 46.2213 25.6633C46.3429 33.2893 46.4645 33.8945 47.0727 35.105C47.9241 36.6786 49.1405 37.768 50.965 38.6153C52.1813 39.2206 53.0328 39.3416 55.5871 39.3416C58.2631 39.3416 58.8712 39.2206 60.3308 38.4943C61.3039 38.0101 62.5202 37.1628 63.0068 36.5575C64.7097 34.4998 64.9529 33.4103 65.0746 24.9371C65.3178 16.7059 65.3178 16.5849 66.6558 16.5849C67.0207 16.5849 67.1424 16.3428 67.1424 15.9796C67.1424 15.3744 66.8991 15.3744 63.4933 15.3744C60.0876 15.3744 59.8443 15.3744 59.8443 15.9796C59.8443 16.4638 60.0876 16.5849 60.8174 16.7059C62.3986 16.827 62.5202 17.4322 62.5202 24.9371C62.5202 32.563 62.277 34.0156 60.5741 35.5892C59.1145 37.0417 57.8981 37.5259 55.8304 37.5259C52.9111 37.5259 50.7217 36.1944 50.1136 33.7735C49.8703 32.9261 49.7487 30.021 49.8703 24.816L49.9919 17.069L51.0866 16.7059C51.6948 16.4638 52.1813 16.1007 52.303 15.8586C52.4246 15.3744 51.9381 15.3744 48.1674 15.3744C44.0318 15.2533 43.7886 15.2533 43.7886 15.8586ZM72.1294 15.8586C72.1294 16.3428 72.3726 16.4638 72.9808 16.4638C74.562 16.4638 75.4135 17.069 75.7784 18.4006C76.0217 19.1268 76.0217 22.6372 76.0217 27.6001C75.9 36.5575 75.7784 37.1628 73.9539 37.5259C73.3457 37.647 73.1024 37.889 73.1024 38.2522C73.1024 38.7364 73.3457 38.8574 77.3596 38.8574C81.2519 38.8574 81.6168 38.8574 81.6168 38.3732C81.6168 38.0101 81.2519 37.768 80.2789 37.5259C79.0625 37.1628 78.9409 37.0417 78.576 36.0734C78.0894 34.6208 78.0894 20.9425 78.4543 21.0636C78.576 21.0636 79.7923 22.274 81.1303 23.8477C82.4683 25.4213 85.9957 29.4158 89.1582 32.684C94.0235 37.889 94.875 38.8574 95.6048 38.8574H96.4562L96.5778 28.2053C96.6995 20.5794 96.8211 17.4322 97.0644 17.1901C97.3076 16.948 97.9158 16.7059 98.4024 16.5849C99.0105 16.4638 99.3754 16.2217 99.3754 15.9796C99.3754 15.6165 98.6456 15.4954 95.2399 15.4954C91.2259 15.3744 91.1043 15.3744 91.1043 15.9796C91.1043 16.4638 91.3476 16.5849 91.8341 16.5849C92.199 16.5849 92.9288 16.948 93.4154 17.3111L94.2668 18.0374L94.3884 25.3002C94.3884 29.4158 94.3884 32.563 94.2668 32.563C94.1452 32.563 93.1721 31.5946 92.199 30.5052C91.2259 29.4158 88.4283 26.2686 85.9957 23.6056C83.563 20.9425 80.887 18.0374 80.0356 17.069L78.576 15.3744H75.4135C72.251 15.2533 72.1294 15.2533 72.1294 15.8586ZM103.998 15.8586C103.998 16.3428 104.241 16.4638 104.849 16.4638C105.336 16.4638 105.944 16.7059 106.309 16.948C106.917 17.3111 106.917 17.9164 107.038 26.2686C107.16 36.6786 107.038 37.2838 105.214 37.5259C104.362 37.647 103.998 37.889 103.998 38.2522C103.998 38.7364 104.362 38.8574 108.62 38.8574C112.998 38.8574 113.242 38.8574 113.242 38.2522C113.242 37.768 112.998 37.647 112.512 37.647C112.147 37.647 111.539 37.4049 111.174 37.1628C110.566 36.7996 110.566 36.1944 110.444 27.237C110.323 18.0374 110.323 17.6743 110.931 17.069C111.296 16.7059 111.904 16.4638 112.269 16.4638C112.877 16.4638 112.998 16.3428 112.998 15.8586C112.998 15.2533 112.755 15.2533 108.376 15.2533C104.241 15.2533 103.998 15.2533 103.998 15.8586ZM135.987 15.8586C136.109 16.2217 136.352 16.4638 136.839 16.4638C137.204 16.4638 137.812 16.827 138.177 17.1901C138.542 17.5532 140.609 22.5161 142.92 28.4474L146.934 38.9785L148.029 39.0995L149.124 39.2206L151.921 31.7157C153.503 27.6001 154.962 23.8477 155.084 23.4845C155.449 22.7582 155.449 22.8793 156.422 25.3002C156.908 26.7528 158.368 30.3842 159.584 33.5314L161.774 39.2206H162.747C163.233 39.2206 163.72 39.0995 163.842 38.8574C163.963 38.6153 165.301 35.105 167.004 30.9894C168.585 26.8738 170.41 22.274 171.018 20.8215C172.356 17.4322 172.599 17.069 173.572 16.7059C174.059 16.5849 174.424 16.2217 174.424 15.9796C174.424 15.6165 173.816 15.4954 170.775 15.4954C167.369 15.4954 167.126 15.4954 167.126 16.1007C167.126 16.5849 167.369 16.7059 167.856 16.7059C169.072 16.7059 169.558 17.069 169.558 17.7953C169.558 18.4006 163.72 34.0156 163.355 34.3787C163.112 34.6208 157.882 20.0952 157.76 18.6427C157.517 17.3111 158.125 16.7059 159.463 16.7059C159.949 16.7059 160.193 16.5849 160.193 16.1007C160.193 15.4954 159.949 15.4954 155.449 15.4954C150.948 15.4954 150.705 15.4954 150.705 16.1007C150.705 16.4638 150.948 16.7059 151.192 16.7059C152.165 16.7059 153.381 17.6743 153.746 18.5216C154.232 19.8531 153.868 21.1846 151.07 28.4474L148.759 34.6208L148.272 33.4103C148.029 32.8051 146.57 28.9316 145.11 24.9371C142.191 17.069 142.191 16.7059 144.137 16.7059C144.867 16.7059 144.988 16.5849 144.988 16.1007C144.988 15.4954 144.745 15.4954 140.488 15.4954C135.866 15.2534 135.744 15.2533 135.987 15.8586ZM197.534 16.1007C197.534 16.1007 197.534 16.4638 197.534 16.5849C197.534 16.7059 197.899 16.7059 197.899 16.7059C198.142 16.7059 198.264 16.827 198.507 16.827C199.48 17.069 200.089 17.1901 200.332 17.7953C200.453 18.1585 200.575 19.611 200.575 27.237C200.575 35.226 200.575 36.1944 200.332 36.6786C200.089 37.2838 199.602 37.647 198.386 38.0101C198.386 38.0101 197.899 38.1311 197.778 38.2522C197.656 38.3732 197.656 38.6153 197.656 38.6153C197.656 38.6153 197.656 38.8574 197.778 38.9785C197.899 39.0995 198.264 39.0995 198.264 39.0995H201.305H206.414C206.414 39.0995 206.657 39.0995 206.778 38.9785C206.9 38.8574 206.9 38.6153 206.9 38.6153C206.9 38.6153 206.9 38.3732 206.778 38.2522C206.657 38.1311 206.17 38.0101 206.17 38.0101C205.076 37.768 204.467 37.4049 204.224 36.7996C203.981 36.3154 203.981 35.226 203.981 32.684V29.0527C204.103 29.1737 204.224 29.1737 204.346 29.2948C204.954 29.6579 205.684 30.2631 208.36 30.2631C211.644 30.3842 213.59 28.9316 214.806 27.237C216.023 25.5423 216.388 22.8793 215.536 19.9742C214.685 17.1901 212.13 15.3744 208.603 15.2533C206.778 15.1323 203.981 15.2533 202.521 15.3744H202.156C200.818 15.3744 199.116 15.6165 198.264 15.6165C198.021 15.6165 198.021 15.6165 197.899 15.7375C197.534 15.9796 197.534 16.1007 197.534 16.1007ZM211.036 27.237C212.374 26.0265 212.374 24.0897 212.374 22.7582C212.252 20.8215 211.401 17.069 207.022 17.069C205.927 17.069 203.859 17.1901 203.738 18.6427C203.616 18.8847 203.616 20.7004 203.616 23.3635V27.7211L204.103 27.9632C204.346 28.0843 204.711 28.2053 205.197 28.3264C207.022 28.8106 209.698 28.4474 211.036 27.237ZM183.06 15.6165C183.425 15.4954 183.668 15.3744 183.668 15.3744C183.668 15.3744 184.154 15.1323 184.276 15.3744C184.276 15.4954 184.519 15.8586 185.006 17.069C185.128 17.3111 185.249 17.5532 185.249 17.7953C185.857 19.49 186.83 21.9109 187.317 23.2424C187.804 24.5739 188.777 26.9949 189.506 28.9316C190.236 30.7473 191.088 33.0472 191.574 34.1366C191.939 35.226 192.547 36.1944 192.669 36.4365C192.791 36.5575 192.791 36.6786 192.912 36.7996C193.277 37.2838 193.642 38.0101 194.493 38.1311C194.493 38.1311 195.102 38.2522 195.223 38.3732C195.345 38.4943 195.345 38.6153 195.345 38.6153V38.9785C195.345 38.9785 195.345 39.0995 195.223 39.0995C195.223 39.2206 194.98 39.0995 194.98 39.0995H189.871H186.222C186.222 39.0995 186.101 39.0995 185.979 39.0995C185.857 39.0995 185.857 38.8574 185.857 38.8574V38.6153C185.857 38.6153 185.857 38.3732 185.979 38.2522C186.101 38.1311 186.709 38.0101 186.709 38.0101C187.804 37.8891 188.29 37.0417 188.412 36.5575V36.4365C188.655 35.9523 188.533 35.5892 187.439 33.0472C186.709 31.3525 186.466 30.8684 186.344 30.7473C186.222 30.7473 184.276 30.7473 182.208 30.7473H178.194L177.951 31.3525C177.221 33.2893 176.613 35.105 176.613 35.5892C176.37 36.5575 176.735 37.768 178.194 38.0101C178.194 38.0101 178.803 38.1311 178.924 38.2522C179.046 38.3732 179.167 38.6153 179.167 38.6153V38.8574C179.167 38.8574 179.167 38.9785 179.046 39.0995C178.924 39.2206 178.681 39.0995 178.681 39.0995H174.91H171.261C171.261 39.0995 171.14 39.0995 171.018 38.9785C170.896 38.8574 170.896 38.7364 170.896 38.7364V38.4943C170.896 38.4943 170.896 38.3732 171.14 38.1311C171.383 37.889 171.869 37.8891 171.869 37.8891C172.843 37.768 173.451 36.6786 173.816 36.0734C173.816 36.0734 173.816 35.9523 173.937 35.9523C174.059 35.7102 174.667 34.3787 175.275 32.9261C175.883 31.4736 176.492 29.7789 176.735 29.2948C177.465 27.4791 178.194 25.7844 179.289 23.1214C179.897 21.6688 180.749 19.49 181.235 18.2795L182.087 16.1007L183.06 15.6165ZM182.817 20.8215C183.06 21.3057 183.303 22.032 183.425 22.3951C183.546 22.7582 184.033 23.8477 184.398 24.816C184.763 25.7844 185.249 26.8738 185.492 27.358C185.736 27.8422 185.857 28.2053 185.857 28.2053C185.857 28.2053 184.398 28.2053 182.573 28.2053C180.505 28.2053 179.289 28.2053 179.289 28.0843C179.289 28.0843 179.411 27.8422 179.411 27.6001C179.532 27.237 180.262 25.3002 181.722 21.1846C181.965 20.5794 182.208 19.9742 182.208 19.8531C182.33 19.8531 182.452 19.9742 182.817 20.8215Z" fill="#FFFBF7"/>
</svg>
