<svg xmlns="http://www.w3.org/2000/svg" version="1.1" width="500px" height="500px" style="shape-rendering:geometricPrecision; text-rendering:geometricPrecision; image-rendering:optimizeQuality; fill-rule:evenodd; clip-rule:evenodd; border-radius:50%;" xmlns:xlink="http://www.w3.org/1999/xlink">
<g><path style="opacity:0" fill="#000000" d="M -0.5,-0.5 C 166.167,-0.5 332.833,-0.5 499.5,-0.5C 499.5,166.167 499.5,332.833 499.5,499.5C 332.833,499.5 166.167,499.5 -0.5,499.5C -0.5,332.833 -0.5,166.167 -0.5,-0.5 Z"/></g>
<g><path style="opacity:1" fill="#caa98f" d="M 249.5,38.5 C 256.965,45.4641 264.298,52.6308 271.5,60C 290.167,60.3333 308.833,60.6667 327.5,61C 339.833,73.3333 352.167,85.6667 364.5,98C 375.161,98.4998 385.828,98.6665 396.5,98.5C 396.333,109.172 396.5,119.839 397,130.5C 409.667,143.167 422.333,155.833 435,168.5C 435.333,187.167 435.667,205.833 436,224.5C 443.015,231.348 449.848,238.348 456.5,245.5C 449.848,252.652 443.015,259.652 436,266.5C 435.667,285.167 435.333,303.833 435,322.5C 422.333,335.167 409.667,347.833 397,360.5C 396.5,371.161 396.333,381.828 396.5,392.5C 385.828,392.333 375.161,392.5 364.5,393C 352.167,405.333 339.833,417.667 327.5,430C 308.833,430.333 290.167,430.667 271.5,431C 264.333,438.167 257.167,445.333 250,452.5C 242.833,445.333 235.667,438.167 228.5,431C 209.833,430.667 191.167,430.333 172.5,430C 160.167,417.667 147.833,405.333 135.5,393C 124.839,392.5 114.172,392.333 103.5,392.5C 103.667,381.828 103.5,371.161 103,360.5C 90.3333,347.833 77.6667,335.167 65,322.5C 64.6667,303.833 64.3333,285.167 64,266.5C 56.9853,259.652 50.152,252.652 43.5,245.5C 50.152,238.348 56.9853,231.348 64,224.5C 64.3333,205.833 64.6667,187.167 65,168.5C 77.6667,155.833 90.3333,143.167 103,130.5C 103.5,119.839 103.667,109.172 103.5,98.5C 114.172,98.6665 124.839,98.4998 135.5,98C 147.833,85.6667 160.167,73.3333 172.5,61C 191.167,60.6667 209.833,60.3333 228.5,60C 235.703,52.9649 242.703,45.7982 249.5,38.5 Z"/></g>
<g><path style="opacity:1" fill="#0c0a08" d="M 249.5,49.5 C 253.298,52.7961 256.964,56.2961 260.5,60C 253.5,60.6667 246.5,60.6667 239.5,60C 243.037,56.6309 246.371,53.1309 249.5,49.5 Z"/></g>
<g><path style="opacity:1" fill="#010101" d="M 175.5,68.5 C 190.17,68.3334 204.837,68.5001 219.5,69C 216.5,72 213.5,75 210.5,78C 200.5,78.3333 190.5,78.6667 180.5,79C 174.167,85.3333 167.833,91.6667 161.5,98C 156.5,98.6667 151.5,98.6667 146.5,98C 156.369,88.2984 166.036,78.4651 175.5,68.5 Z"/></g>
<g><path style="opacity:1" fill="#000000" d="M 278.5,77.5 C 259.5,78.8333 240.5,78.8333 221.5,77.5C 224.631,74.8712 227.631,72.0379 230.5,69C 243.5,68.3333 256.5,68.3333 269.5,69C 272.369,72.0379 275.369,74.8712 278.5,77.5 Z"/></g>
<g><path style="opacity:1" fill="#010101" d="M 280.5,69.5 C 294.994,68.3391 309.661,68.1724 324.5,69C 334.167,78.6667 343.833,88.3333 353.5,98C 348.5,98.6667 343.5,98.6667 338.5,98C 332.167,91.6667 325.833,85.3333 319.5,79C 309.5,78.6667 299.5,78.3333 289.5,78C 286.631,74.9621 283.631,72.1288 280.5,69.5 Z"/></g>
<g><path style="opacity:1" fill="#9c826e" d="M 221.5,77.5 C 240.5,78.8333 259.5,78.8333 278.5,77.5C 279.043,77.56 279.376,77.8933 279.5,78.5C 259.833,79.8333 240.167,79.8333 220.5,78.5C 220.624,77.8933 220.957,77.56 221.5,77.5 Z"/></g>
<g><path style="opacity:1" fill="#020101" d="M 183.5,86.5 C 189.509,86.3338 195.509,86.5005 201.5,87C 197.833,90.6667 194.167,94.3333 190.5,98C 184.5,98.6667 178.5,98.6667 172.5,98C 176.37,94.2977 180.037,90.4643 183.5,86.5 Z"/></g>
<g><path style="opacity:1" fill="#000000" d="M 298.5,97.5 C 266.167,98.8333 233.833,98.8333 201.5,97.5C 205.298,94.2039 208.964,90.7039 212.5,87C 237.5,86.3333 262.5,86.3333 287.5,87C 291.036,90.7039 294.702,94.2039 298.5,97.5 Z"/></g>
<g><path style="opacity:1" fill="#020201" d="M 327.5,97.5 C 322.025,98.4889 316.358,98.8222 310.5,98.5C 306.369,94.8704 302.369,91.037 298.5,87C 304.5,86.3333 310.5,86.3333 316.5,87C 320.036,90.7039 323.702,94.2039 327.5,97.5 Z"/></g>
<g><path style="opacity:1" fill="#69584a" d="M 201.5,97.5 C 233.833,98.8333 266.167,98.8333 298.5,97.5C 299.043,97.56 299.376,97.8933 299.5,98.5C 266.5,99.8333 233.5,99.8333 200.5,98.5C 200.624,97.8933 200.957,97.56 201.5,97.5 Z"/></g>
<g><path style="opacity:1" fill="#6b5a4b" d="M 327.5,97.5 C 328.043,97.56 328.376,97.8933 328.5,98.5C 322.346,99.8166 316.346,99.8166 310.5,98.5C 316.358,98.8222 322.025,98.4889 327.5,97.5 Z"/></g>
<g><path style="opacity:1" fill="#352c25" d="M 336.5,107.5 C 330.974,107.179 325.64,107.512 320.5,108.5C 319.711,108.217 319.044,107.717 318.5,107C 324.681,106.181 330.681,106.347 336.5,107.5 Z"/></g>
<g><path style="opacity:1" fill="#0c0908" d="M 111.5,106.5 C 116.511,106.334 121.511,106.501 126.5,107C 121.667,111.833 116.833,116.667 112,121.5C 111.501,116.511 111.334,111.511 111.5,106.5 Z"/></g>
<g><path style="opacity:1" fill="#040302" d="M 112.5,147.5 C 111.514,143.03 111.181,138.363 111.5,133.5C 119.964,124.535 128.631,115.702 137.5,107C 142.5,106.333 147.5,106.333 152.5,107C 138.965,120.368 125.631,133.868 112.5,147.5 Z"/></g>
<g><path style="opacity:1" fill="#040302" d="M 163.5,106.5 C 169.509,106.334 175.509,106.501 181.5,107C 158.333,130.167 135.167,153.333 112,176.5C 111.333,170.5 111.333,164.5 112,158.5C 129.368,141.299 146.535,123.965 163.5,106.5 Z"/></g>
<g><path style="opacity:1" fill="#000000" d="M 192.5,106.5 C 230.835,106.333 269.168,106.5 307.5,107C 334.333,133.833 361.167,160.667 388,187.5C 388.667,226.167 388.667,264.833 388,303.5C 361.167,330.333 334.333,357.167 307.5,384C 269.167,384.667 230.833,384.667 192.5,384C 165.667,357.167 138.833,330.333 112,303.5C 111.333,264.833 111.333,226.167 112,187.5C 139.035,160.632 165.868,133.632 192.5,106.5 Z"/></g>
<g><path style="opacity:1" fill="#030202" d="M 336.5,107.5 C 353.799,124.298 370.965,141.298 388,158.5C 388.667,164.5 388.667,170.5 388,176.5C 365.298,153.965 342.798,131.299 320.5,108.5C 325.64,107.512 330.974,107.179 336.5,107.5 Z"/></g>
<g><path style="opacity:1" fill="#040303" d="M 347.5,107.5 C 352.316,106.35 357.316,106.184 362.5,107C 371,115.5 379.5,124 388,132.5C 388.667,137.5 388.667,142.5 388,147.5C 374.632,133.965 361.132,120.631 347.5,107.5 Z"/></g>
<g><path style="opacity:1" fill="#0b0907" d="M 373.5,107.5 C 378.305,106.513 383.305,106.179 388.5,106.5C 388.666,111.511 388.499,116.511 388,121.5C 383.298,116.63 378.465,111.963 373.5,107.5 Z"/></g>
<g><path style="opacity:1" fill="#897361" d="M 111.5,133.5 C 111.181,138.363 111.514,143.03 112.5,147.5C 112.44,148.043 112.107,148.376 111.5,148.5C 110.186,143.348 110.186,138.348 111.5,133.5 Z"/></g>
<g><path style="opacity:1" fill="#050403" d="M 102.5,141.5 C 103.65,146.316 103.816,151.316 103,156.5C 96.6667,162.833 90.3333,169.167 84,175.5C 83.6667,185.5 83.3333,195.5 83,205.5C 79.6667,208.833 76.3333,212.167 73,215.5C 72.3333,200.833 72.3333,186.167 73,171.5C 83.0355,161.632 92.8688,151.632 102.5,141.5 Z"/></g>
<g><path style="opacity:1" fill="#070504" d="M 396.5,141.5 C 406.798,151.298 416.965,161.298 427,171.5C 427.667,186.167 427.667,200.833 427,215.5C 423.667,212.167 420.333,208.833 417,205.5C 416.667,195.5 416.333,185.5 416,175.5C 409.667,169.167 403.333,162.833 397,156.5C 396.501,151.511 396.334,146.511 396.5,141.5 Z"/></g>
<g><path style="opacity:1" fill="#080605" d="M 396.5,167.5 C 400.798,171.296 404.964,175.296 409,179.5C 409.667,185.5 409.667,191.5 409,197.5C 405,193.5 401,189.5 397,185.5C 396.501,179.509 396.334,173.509 396.5,167.5 Z"/></g>
<g><path style="opacity:1" fill="#030202" d="M 92.5,195.5 C 91.5119,190.36 91.1786,185.026 91.5,179.5C 95.1296,175.369 98.963,171.369 103,167.5C 103.667,173.5 103.667,179.5 103,185.5C 99.6309,189.037 96.1309,192.371 92.5,195.5 Z"/></g>
<g><path style="opacity:1" fill="#393028" d="M 91.5,179.5 C 91.1786,185.026 91.5119,190.36 92.5,195.5C 92.2172,196.289 91.7172,196.956 91,197.5C 90.1808,191.319 90.3475,185.319 91.5,179.5 Z"/></g>
<g><path style="opacity:1" fill="#040403" d="M 396.5,196.5 C 400.798,200.296 404.964,204.296 409,208.5C 409.667,233.167 409.667,257.833 409,282.5C 405,286.5 401,290.5 397,294.5C 396.5,261.835 396.333,229.168 396.5,196.5 Z"/></g>
<g><path style="opacity:1" fill="#060404" d="M 102.5,196.5 C 103.664,228.997 103.831,261.664 103,294.5C 99,290.5 95,286.5 91,282.5C 90.3333,257.833 90.3333,233.167 91,208.5C 95.037,204.631 98.8704,200.631 102.5,196.5 Z"/></g>
<g><path style="opacity:1" fill="#cdab91" d="M 197.5,212.5 C 196.167,236.5 196.167,260.5 197.5,284.5C 200.247,284.187 202.914,284.52 205.5,285.5C 195.833,286.833 186.167,286.833 176.5,285.5C 179.428,284.516 182.428,284.183 185.5,284.5C 185.5,260.5 185.5,236.5 185.5,212.5C 182.428,212.817 179.428,212.484 176.5,211.5C 186.167,210.167 195.833,210.167 205.5,211.5C 202.914,212.48 200.247,212.813 197.5,212.5 Z"/></g>
<g><path style="opacity:1" fill="#caa98f" d="M 273.5,244.5 C 283.319,245.494 293.319,245.827 303.5,245.5C 303.828,234.321 303.495,223.321 302.5,212.5C 299.428,212.817 296.428,212.484 293.5,211.5C 303.5,210.167 313.5,210.167 323.5,211.5C 320.572,212.484 317.572,212.817 314.5,212.5C 314.5,236.5 314.5,260.5 314.5,284.5C 317.898,284.18 321.232,284.513 324.5,285.5C 314.167,286.833 303.833,286.833 293.5,285.5C 296.428,284.516 299.428,284.183 302.5,284.5C 303.495,272.011 303.829,259.344 303.5,246.5C 293.319,246.173 283.319,246.506 273.5,247.5C 273.5,259.833 273.5,272.167 273.5,284.5C 276.898,284.18 280.232,284.513 283.5,285.5C 273.167,286.833 262.833,286.833 252.5,285.5C 255.768,284.513 259.102,284.18 262.5,284.5C 262.5,260.5 262.5,236.5 262.5,212.5C 259.102,212.82 255.768,212.487 252.5,211.5C 262.833,210.167 273.167,210.167 283.5,211.5C 280.232,212.487 276.898,212.82 273.5,212.5C 273.5,223.167 273.5,233.833 273.5,244.5 Z"/></g>
<g><path style="opacity:1" fill="#5e4f42" d="M 418.5,217.5 C 417.167,236.167 417.167,254.833 418.5,273.5C 418.44,274.043 418.107,274.376 417.5,274.5C 416.167,255.167 416.167,235.833 417.5,216.5C 418.107,216.624 418.44,216.957 418.5,217.5 Z"/></g>
<g><path style="opacity:1" fill="#0a0806" d="M 82.5,216.5 C 83.6623,235.662 83.829,254.996 83,274.5C 79.6667,271.167 76.3333,267.833 73,264.5C 72.3333,251.833 72.3333,239.167 73,226.5C 76.3709,223.297 79.5375,219.964 82.5,216.5 Z"/></g>
<g><path style="opacity:1" fill="#000000" d="M 418.5,217.5 C 421.129,220.631 423.962,223.631 427,226.5C 427.667,239.167 427.667,251.833 427,264.5C 423.962,267.369 421.129,270.369 418.5,273.5C 417.167,254.833 417.167,236.167 418.5,217.5 Z"/></g>
<g><path style="opacity:1" fill="#937b68" d="M 63.5,235.5 C 63.56,234.957 63.8933,234.624 64.5,234.5C 65.8333,241.833 65.8333,249.167 64.5,256.5C 63.8933,256.376 63.56,256.043 63.5,255.5C 64.8333,248.833 64.8333,242.167 63.5,235.5 Z"/></g>
<g><path style="opacity:1" fill="#000000" d="M 63.5,235.5 C 64.8333,242.167 64.8333,248.833 63.5,255.5C 60.5222,252.187 57.5222,248.853 54.5,245.5C 57.5222,242.147 60.5222,238.813 63.5,235.5 Z"/></g>
<g><path style="opacity:1" fill="#000000" d="M 435.5,235.5 C 439.146,238.479 442.479,241.812 445.5,245.5C 442.516,248.985 439.349,252.318 436,255.5C 435.5,248.842 435.334,242.175 435.5,235.5 Z"/></g>
<g><path style="opacity:1" fill="#c9a88e" d="M 198.5,246.5 C 197.167,245.5 197.167,244.5 198.5,243.5C 208.965,233.535 219.298,223.369 229.5,213C 226.447,212.821 223.447,212.321 220.5,211.5C 227.833,210.167 235.167,210.167 242.5,211.5C 239.215,212.324 235.882,212.824 232.5,213C 223.833,221.667 215.167,230.333 206.5,239C 217.167,254 227.833,269 238.5,284C 241.553,284.179 244.553,284.679 247.5,285.5C 236.833,286.833 226.167,286.833 215.5,285.5C 218.5,284.833 221.5,284.167 224.5,283.5C 215.808,271.149 207.141,258.815 198.5,246.5 Z"/></g>
<g><path style="opacity:1" fill="#56483d" d="M 302.5,212.5 C 303.495,223.321 303.828,234.321 303.5,245.5C 293.319,245.827 283.319,245.494 273.5,244.5C 283.167,244.5 292.833,244.5 302.5,244.5C 302.5,233.833 302.5,223.167 302.5,212.5 Z"/></g>
<g><path style="opacity:1" fill="#1d1814" d="M 197.5,212.5 C 197.172,223.014 197.506,233.347 198.5,243.5C 197.167,244.5 197.167,245.5 198.5,246.5C 197.505,258.989 197.171,271.656 197.5,284.5C 196.167,260.5 196.167,236.5 197.5,212.5 Z"/></g>
<g><path style="opacity:1" fill="#52453a" d="M 273.5,247.5 C 283.319,246.506 293.319,246.173 303.5,246.5C 303.829,259.344 303.495,272.011 302.5,284.5C 302.5,272.167 302.5,259.833 302.5,247.5C 292.833,247.5 283.167,247.5 273.5,247.5 Z"/></g>
<g><path style="opacity:1" fill="#050403" d="M 72.5,275.5 C 76.1309,278.629 79.6309,281.963 83,285.5C 83.3333,295.5 83.6667,305.5 84,315.5C 90.3333,321.833 96.6667,328.167 103,334.5C 103.667,339.5 103.667,344.5 103,349.5C 93,339.5 83,329.5 73,319.5C 72.5001,304.837 72.3334,290.17 72.5,275.5 Z"/></g>
<g><path style="opacity:1" fill="#080705" d="M 426.5,275.5 C 427.661,289.994 427.828,304.661 427,319.5C 417,329.5 407,339.5 397,349.5C 396.333,344.5 396.333,339.5 397,334.5C 403.333,328.167 409.667,321.833 416,315.5C 416.333,305.5 416.667,295.5 417,285.5C 420.371,282.297 423.538,278.964 426.5,275.5 Z"/></g>
<g><path style="opacity:1" fill="#393029" d="M 92.5,295.5 C 91.5119,300.64 91.1786,305.974 91.5,311.5C 90.3475,305.681 90.1808,299.681 91,293.5C 91.7172,294.044 92.2172,294.711 92.5,295.5 Z"/></g>
<g><path style="opacity:1" fill="#040302" d="M 92.5,295.5 C 96.1309,298.629 99.6309,301.963 103,305.5C 103.667,311.5 103.667,317.5 103,323.5C 98.963,319.631 95.1296,315.631 91.5,311.5C 91.1786,305.974 91.5119,300.64 92.5,295.5 Z"/></g>
<g><path style="opacity:1" fill="#0a0806" d="M 408.5,293.5 C 409.653,299.319 409.819,305.319 409,311.5C 405,315.5 401,319.5 397,323.5C 396.333,317.5 396.333,311.5 397,305.5C 401.037,301.631 404.87,297.631 408.5,293.5 Z"/></g>
<g><path style="opacity:1" fill="#040403" d="M 111.5,314.5 C 134.965,337.465 158.299,360.632 181.5,384C 175.5,384.667 169.5,384.667 163.5,384C 146.333,366.833 129.167,349.667 112,332.5C 111.501,326.509 111.334,320.509 111.5,314.5 Z"/></g>
<g><path style="opacity:1" fill="#050403" d="M 387.5,314.5 C 388.653,320.319 388.819,326.319 388,332.5C 370.833,349.667 353.667,366.833 336.5,384C 330.5,384.667 324.5,384.667 318.5,384C 341.702,360.965 364.702,337.799 387.5,314.5 Z"/></g>
<g><path style="opacity:1" fill="#040302" d="M 111.5,343.5 C 125.299,356.798 138.965,370.298 152.5,384C 147.5,384.667 142.5,384.667 137.5,384C 129,375.5 120.5,367 112,358.5C 111.501,353.511 111.334,348.511 111.5,343.5 Z"/></g>
<g><path style="opacity:1" fill="#050403" d="M 387.5,343.5 C 388.65,348.316 388.816,353.316 388,358.5C 379.5,367 371,375.5 362.5,384C 357.5,384.667 352.5,384.667 347.5,384C 361.035,370.632 374.369,357.132 387.5,343.5 Z"/></g>
<g><path style="opacity:1" fill="#030202" d="M 111.5,369.5 C 116.631,374.13 121.631,378.963 126.5,384C 121.511,384.499 116.511,384.666 111.5,384.5C 111.5,379.5 111.5,374.5 111.5,369.5 Z"/></g>
<g><path style="opacity:1" fill="#020201" d="M 387.5,369.5 C 388.487,374.305 388.821,379.305 388.5,384.5C 383.489,384.666 378.489,384.499 373.5,384C 378.37,379.298 383.037,374.465 387.5,369.5 Z"/></g>
<g><path style="opacity:1" fill="#69584a" d="M 298.5,393.5 C 266.167,392.167 233.833,392.167 201.5,393.5C 200.957,393.44 200.624,393.107 200.5,392.5C 233.5,391.167 266.5,391.167 299.5,392.5C 299.376,393.107 299.043,393.44 298.5,393.5 Z"/></g>
<g><path style="opacity:1" fill="#030202" d="M 146.5,393.5 C 151.316,392.35 156.316,392.184 161.5,393C 167.833,399.333 174.167,405.667 180.5,412C 190.5,412.333 200.5,412.667 210.5,413C 213.5,416 216.5,419 219.5,422C 204.833,422.667 190.167,422.667 175.5,422C 165.965,412.298 156.298,402.798 146.5,393.5 Z"/></g>
<g><path style="opacity:1" fill="#040303" d="M 172.5,393.5 C 178.319,392.347 184.319,392.181 190.5,393C 194.167,396.667 197.833,400.333 201.5,404C 195.5,404.667 189.5,404.667 183.5,404C 179.964,400.296 176.298,396.796 172.5,393.5 Z"/></g>
<g><path style="opacity:1" fill="#000000" d="M 201.5,393.5 C 233.833,392.167 266.167,392.167 298.5,393.5C 294.702,396.796 291.036,400.296 287.5,404C 262.5,404.667 237.5,404.667 212.5,404C 208.964,400.296 205.298,396.796 201.5,393.5 Z"/></g>
<g><path style="opacity:1" fill="#040403" d="M 309.5,392.5 C 315.509,392.334 321.509,392.501 327.5,393C 323.833,396.667 320.167,400.333 316.5,404C 310.5,404.667 304.5,404.667 298.5,404C 302.37,400.298 306.037,396.464 309.5,392.5 Z"/></g>
<g><path style="opacity:1" fill="#020201" d="M 323.5,422.5 C 309.323,422.829 295.323,422.496 281.5,421.5C 283.962,418.536 286.629,415.703 289.5,413C 299.5,412.667 309.5,412.333 319.5,412C 325.833,405.667 332.167,399.333 338.5,393C 343.5,392.333 348.5,392.333 353.5,393C 343.632,403.036 333.632,412.869 323.5,422.5 Z"/></g>
<g><path style="opacity:1" fill="#000000" d="M 221.5,413.5 C 240.329,412.338 259.329,412.171 278.5,413C 275.462,415.703 272.795,418.703 270.5,422C 257.167,422.667 243.833,422.667 230.5,422C 227.631,418.962 224.631,416.129 221.5,413.5 Z"/></g>
<g><path style="opacity:1" fill="#685749" d="M 281.5,421.5 C 295.323,422.496 309.323,422.829 323.5,422.5C 309.006,423.661 294.339,423.828 279.5,423C 280.044,422.283 280.711,421.783 281.5,421.5 Z"/></g>
<g><path style="opacity:1" fill="#392f27" d="M 259.5,432.5 C 253.167,431.167 246.833,431.167 240.5,432.5C 239.957,432.44 239.624,432.107 239.5,431.5C 246.5,430.167 253.5,430.167 260.5,431.5C 260.376,432.107 260.043,432.44 259.5,432.5 Z"/></g>
<g><path style="opacity:1" fill="#0c0a08" d="M 240.5,432.5 C 246.833,431.167 253.167,431.167 259.5,432.5C 256.854,435.812 253.854,438.812 250.5,441.5C 247.147,438.478 243.813,435.478 240.5,432.5 Z"/></g>
</svg>
